<?xml version="1.0" standalone="no"?>
<!DOCTYPE svg PUBLIC "-//W3C//DTD SVG 20010904//EN"
 "http://www.w3.org/TR/2001/REC-SVG-20010904/DTD/svg10.dtd">
<svg version="1.0" xmlns="http://www.w3.org/2000/svg"
 width="695.000000pt" height="735.000000pt" viewBox="0 0 695.000000 735.000000"
 preserveAspectRatio="xMidYMid meet">

<g transform="translate(0.000000,735.000000) scale(0.100000,-0.100000)"
fill="#000000" stroke="none">
<path d="M3120 6805 c-551 -68 -1036 -309 -1440 -714 -398 -400 -586 -743
-694 -1271 -36 -178 -46 -271 -53 -475 -20 -615 182 -1227 553 -1683 130 -158
371 -396 494 -484 342 -247 684 -401 1044 -469 141 -27 506 -37 694 -20 200
19 482 74 482 94 0 5 -41 51 -90 102 l-90 92 -123 -23 c-188 -34 -346 -47
-504 -41 -78 2 -146 8 -152 12 -7 4 -11 65 -11 174 l0 168 31 60 c22 43 33 79
36 124 4 56 1 71 -24 119 -34 66 -93 114 -169 136 -59 17 -102 48 -244 179
-52 48 -165 141 -251 206 -175 132 -291 249 -372 371 -100 151 -161 291 -214
491 -25 95 -27 116 -28 307 0 200 1 208 33 332 74 289 181 478 381 679 341
341 807 486 1291 403 287 -50 570 -209 801 -451 165 -173 266 -356 336 -608
31 -112 43 -364 24 -495 -35 -236 -155 -464 -369 -701 -95 -104 -96 -88 9
-196 l63 -65 86 89 c155 160 643 674 743 781 l97 106 0 451 0 451 -222 234
c-123 128 -271 284 -329 347 l-107 114 2 88 c1 81 -1 91 -29 137 -104 167
-366 142 -429 -41 -20 -61 -20 -103 0 -177 9 -32 14 -61 11 -64 -3 -3 -40 14
-84 38 -43 23 -134 65 -202 93 -69 28 -126 56 -128 62 -2 6 41 58 97 117 55
59 108 118 117 132 12 20 17 59 21 175 4 128 7 149 21 149 27 0 331 -155 431
-220 131 -86 222 -164 385 -331 163 -168 247 -283 344 -469 183 -354 261 -674
261 -1064 0 -284 -30 -477 -111 -720 -100 -300 -249 -562 -423 -744 l-41 -43
94 -92 94 -91 43 50 c153 174 350 505 434 727 47 126 100 323 132 492 21 109
23 149 23 430 0 281 -2 321 -23 430 -52 271 -110 454 -208 649 -290 580 -818
1046 -1414 1249 -108 37 -258 73 -401 98 -163 28 -556 35 -729 14z m660 -254
c69 -12 139 -25 155 -29 l30 -8 3 -151 3 -150 -132 -142 -131 -141 -101 6
c-56 3 -106 7 -112 9 -5 1 -76 -1 -156 -6 -163 -9 -343 -43 -484 -90 -131 -44
-322 -141 -415 -210 -113 -83 -367 -339 -636 -639 -27 -30 -51 -57 -54 -60 -3
-3 -36 -39 -75 -80 -38 -41 -120 -127 -182 -192 l-113 -116 0 -154 0 -153 -89
-89 -90 -89 -7 28 c-11 43 5 485 21 583 17 104 65 292 106 417 33 99 137 312
197 403 l37 57 160 6 c88 4 241 7 340 8 l180 1 241 238 c132 130 275 274 319
320 l78 82 55 0 c49 0 59 -4 94 -36 56 -50 112 -74 178 -74 138 0 250 111 250
250 0 69 -27 131 -83 189 l-42 43 165 -5 c93 -3 220 -14 290 -26z m-775 -38
c-10 -14 -26 -41 -37 -60 l-20 -33 -93 0 -93 0 -299 -305 -298 -305 -197 0
c-109 0 -198 4 -198 9 0 14 179 189 275 270 233 194 520 338 840 421 140 37
142 37 120 3z m265 -98 c56 -57 15 -155 -65 -155 -47 0 -64 8 -80 41 -53 102
64 194 145 114z m1364 -499 c89 -37 84 -149 -8 -172 -59 -14 -126 31 -126 85
0 35 41 88 73 94 12 2 23 5 25 6 1 0 18 -5 36 -13z m166 -393 c46 -49 127
-133 180 -188 53 -55 140 -146 193 -202 l97 -103 0 -408 0 -408 -76 -74 -75
-75 5 35 c21 139 11 369 -23 530 -33 156 -108 342 -200 493 -88 146 -260 344
-374 433 -15 12 -27 25 -27 29 0 3 24 4 53 0 32 -3 71 0 102 8 28 8 53 15 56
16 3 0 43 -38 89 -86z m-3054 -984 c-22 -118 -28 -245 -16 -374 40 -468 195
-795 524 -1112 132 -128 187 -169 430 -329 88 -57 161 -106 164 -108 2 -2 -4
-15 -12 -28 -9 -14 -21 -49 -27 -80 -21 -105 36 -219 133 -269 l38 -19 0 -115
c0 -75 -4 -115 -11 -115 -5 0 -124 115 -262 256 l-252 255 3 64 c5 79 -18 135
-76 187 -60 54 -104 70 -183 66 -80 -4 -145 -40 -193 -106 -26 -37 -31 -54
-34 -118 -2 -41 -8 -74 -12 -74 -10 0 -137 134 -224 235 -151 178 -346 504
-407 682 -42 123 -89 292 -89 320 0 16 28 51 94 114 51 50 132 133 180 185
l86 95 0 150 0 151 76 84 c42 47 78 83 80 81 2 -2 -2 -37 -10 -78z m521 -1884
c29 -21 46 -75 34 -108 -13 -34 -56 -61 -97 -61 -81 0 -117 105 -53 158 35 30
83 34 116 11z m828 -100 c90 -43 61 -185 -38 -185 -42 0 -92 37 -101 75 -10
39 18 93 56 110 42 18 44 18 83 0z m-657 -325 c35 -39 61 -74 59 -76 -6 -6
-76 33 -190 106 -73 47 -87 60 -67 61 14 0 41 6 60 14 32 12 36 11 55 -9 11
-13 48 -56 83 -96z"/>
<path d="M3349 5427 c-86 -33 -159 -98 -199 -182 -15 -31 -20 -62 -20 -127 0
-77 3 -92 35 -155 34 -69 72 -108 144 -149 l34 -19 -6 -383 -6 -384 325 -329
324 -329 0 -64 0 -65 413 -418 c848 -859 1151 -1176 1173 -1229 20 -48 18
-128 -5 -173 -25 -48 -79 -95 -126 -111 -53 -18 -199 -9 -250 15 -48 22 -106
80 -1006 1000 -949 970 -1089 1115 -1089 1127 0 6 18 34 40 63 79 103 104 201
76 301 -56 196 -249 305 -441 250 -48 -15 -70 -29 -131 -89 -59 -59 -75 -82
-88 -126 -23 -77 -20 -168 6 -238 24 -67 125 -176 194 -211 52 -27 396 -368
1010 -1001 763 -788 1231 -1253 1290 -1284 71 -37 164 -57 269 -57 232 0 392
88 479 261 35 71 36 74 36 194 0 116 -2 125 -30 183 -43 84 -217 269 -1189
1260 -348 354 -377 386 -383 425 -3 23 -7 198 -7 388 -1 304 1 348 15 360 31
26 67 113 72 176 7 86 -15 139 -80 198 -112 100 -257 94 -350 -15 -90 -105
-74 -260 37 -358 26 -23 52 -42 56 -42 5 0 9 -79 9 -175 0 -96 -4 -175 -9
-175 -4 0 -91 85 -193 188 l-185 189 -6 108 c-4 59 -7 212 -7 340 l0 231 38
21 c53 31 128 109 154 162 18 36 22 64 23 136 0 79 -3 96 -27 140 -34 65 -101
129 -163 156 -62 27 -202 36 -256 16z m167 -218 c29 -14 54 -61 54 -99 0 -46
-55 -100 -104 -100 -48 0 -85 18 -102 51 -53 104 45 200 152 148z m617 -819
c51 -57 25 -142 -49 -156 -92 -17 -159 79 -103 150 43 54 105 57 152 6z
m-1218 -556 c20 -9 40 -30 50 -51 51 -107 -88 -204 -177 -124 -28 25 -33 36
-33 74 0 35 6 52 25 72 43 47 81 55 135 29z"/>
<path d="M2780 859 c-129 -9 -287 -33 -298 -44 -21 -20 97 -40 323 -55 197
-13 1069 -12 1257 0 144 10 304 33 316 45 18 17 -33 29 -208 46 -138 14 -1230
20 -1390 8z"/>
</g>
</svg>
